<svg width="1501.86025390625px" height="120.8px" xmlns="http://www.w3.org/2000/svg" viewBox="-500.93012695312495 14.600000000000001 1501.86025390625 120.8" style="background: rgb(232, 245, 247);" preserveAspectRatio="xMidYMid"><defs><filter id="editing-hover" x="-100%" y="-100%" width="300%" height="300%"><feFlood flood-color="#68cac6" result="flood"></feFlood><feComposite operator="in" in2="SourceAlpha" in="flood" result="shadow"></feComposite><feOffset dx="-2.6" dy="-1.9" in="SourceGraphic" result="offset-1"></feOffset><feOffset dx="2.6" dy="1.9" in="shadow" result="offset-2"></feOffset><feMerge><feMergeNode in="offset-2"></feMergeNode><feMergeNode in="offset-1"></feMergeNode></feMerge></filter></defs><g filter="url(#editing-hover)"><g transform="translate(-295.429319858551, 102.68000030517578)"><path d="M11.01-29.50L4.22-29.50L4.22-29.50Q6.59-37.70 6.72-46.34L6.72-46.34L8.58-46.59L8.58-46.59Q9.54-46.72 10.24-46.72L10.24-46.72L10.24-46.72Q13.06-46.72 14.59-45.34L14.59-45.34L14.59-45.34Q16.13-43.97 16.13-41.54L16.13-41.54L16.13-41.54Q16.13-38.98 14.98-36.16L14.98-36.16L14.98-36.16Q12.93-31.17 11.01-29.50L11.01-29.50ZM24.38-29.50L17.60-29.50L17.60-29.50Q19.97-37.70 20.10-46.34L20.10-46.34L21.95-46.59L21.95-46.59Q22.91-46.72 23.62-46.72L23.62-46.72L23.62-46.72Q26.43-46.72 27.97-45.34L27.97-45.34L27.97-45.34Q29.50-43.97 29.50-41.54L29.50-41.54L29.50-41.54Q29.50-38.98 28.35-36.16L28.35-36.16L28.35-36.16Q26.30-31.17 24.38-29.50L24.38-29.50ZM56-9.86L56-9.86L56-9.86Q57.22-8.32 57.22-5.34L57.22-5.34L57.22-5.34Q57.22-2.37 54.94-0.54L54.94-0.54L54.94-0.54Q52.67 1.28 48.70 1.28L48.70 1.28L48.70 1.28Q46.40 1.28 42.82 0.77L42.82 0.77L42.82 0.77Q35.78-0.32 33.76-0.32L33.76-0.32L33.76-0.32Q31.74-0.32 30.91-0.22L30.91-0.22L30.91-0.22Q30.08-0.13 28.74 0L28.74 0L36.48-42.24L50.50-42.24L44.10-7.04L44.10-7.04Q44.93-6.91 45.70-6.91L45.70-6.91L47.30-6.91L47.30-6.91Q52.67-6.91 56-9.86ZM87.42-10.82L87.42-10.82L87.42-10.82Q89.02-9.73 89.02-7.33L89.02-7.33L89.02-7.33Q89.02-4.93 87.81-3.39L87.81-3.39L87.81-3.39Q86.59-1.86 84.61-0.83L84.61-0.83L84.61-0.83Q80.51 1.28 76.10 1.28L76.10 1.28L76.10 1.28Q71.68 1.28 69.09 0.32L69.09 0.32L69.09 0.32Q66.50-0.64 64.77-2.43L64.77-2.43L64.77-2.43Q61.38-5.82 61.38-12.03L61.38-12.03L61.38-12.03Q61.38-21.70 66.62-27.58L66.62-27.58L66.62-27.58Q72.26-33.92 82.05-33.92L82.05-33.92L82.05-33.92Q88.13-33.92 91.14-31.36L91.14-31.36L91.14-31.36Q93.38-29.44 93.38-26.30L93.38-26.30L93.38-26.30Q93.38-15.04 73.92-15.04L73.92-15.04L73.92-15.04Q73.66-13.38 73.66-11.97L73.66-11.97L73.66-11.97Q73.66-9.02 74.98-7.90L74.98-7.90L74.98-7.90Q76.29-6.78 78.72-6.78L78.72-6.78L78.72-6.78Q81.15-6.78 83.74-7.90L83.74-7.90L83.74-7.90Q86.34-9.02 87.42-10.82ZM74.37-17.79L74.37-17.79L74.37-17.79Q78.91-17.79 81.54-20.61L81.54-20.61L81.54-20.61Q84.16-23.30 84.16-27.58L84.16-27.58L84.16-27.58Q84.16-29.06 83.62-29.86L83.62-29.86L83.62-29.86Q83.07-30.66 81.98-30.66L81.98-30.66L81.98-30.66Q80.90-30.66 79.97-30.24L79.97-30.24L79.97-30.24Q79.04-29.82 78.08-28.42L78.08-28.42L78.08-28.42Q75.71-25.22 74.37-17.79ZM110.91-3.52L110.91-3.52L110.91-3.52Q108.93 1.28 102.59 1.28L102.59 1.28L102.59 1.28Q99.33 1.28 97.28-0.96L97.28-0.96L97.28-0.96Q95.55-2.94 95.55-4.93L95.55-4.93L95.55-4.93Q95.55-10.11 97.92-20.22L97.92-20.22L100.29-32.64L113.28-33.92L109.38-13.70L109.38-13.70Q108.29-8.96 108.29-7.30L108.29-7.30L108.29-7.30Q108.29-3.65 110.91-3.52ZM101.44-41.54L101.44-41.54L101.44-41.54Q101.44-44.03 103.52-45.38L103.52-45.38L103.52-45.38Q105.60-46.72 108.61-46.72L108.61-46.72L108.61-46.72Q111.62-46.72 113.44-45.38L113.44-45.38L113.44-45.38Q115.26-44.03 115.26-41.54L115.26-41.54L115.26-41.54Q115.26-39.04 113.25-37.76L113.25-37.76L113.25-37.76Q111.23-36.48 108.22-36.48L108.22-36.48L108.22-36.48Q105.22-36.48 103.33-37.76L103.33-37.76L103.33-37.76Q101.44-39.04 101.44-41.54ZM135.49-22.46L135.49-22.46L135.49-22.46Q136.38-24.83 136.38-26.88L136.38-26.88L136.38-26.88Q136.38-30.66 133.31-30.66L133.31-30.66L133.31-30.66Q131.71-30.66 130.40-29.22L130.40-29.22L130.40-29.22Q129.09-27.78 129.09-25.98L129.09-25.98L129.09-25.98Q129.09-24.70 130.11-23.68L130.11-23.68L130.11-23.68Q131.58-22.27 135.36-19.97L135.36-19.97L135.36-19.97Q139.14-17.66 140.58-15.78L140.58-15.78L140.58-15.78Q142.02-13.89 142.02-11.30L142.02-11.30L142.02-11.30Q142.02-8.70 140.77-6.34L140.77-6.34L140.77-6.34Q139.52-3.97 137.28-2.30L137.28-2.30L137.28-2.30Q132.48 1.28 124.80 1.28L124.80 1.28L124.80 1.28Q120.64 1.28 117.44-0.90L117.44-0.90L117.44-0.90Q114.24-3.01 114.24-5.50L114.24-5.50L114.24-5.50Q114.24-8 116.06-9.47L116.06-9.47L116.06-9.47Q117.89-10.94 120.58-10.94L120.58-10.94L120.58-10.94Q123.26-10.94 124.93-9.92L124.93-9.92L124.93-9.92Q124.10-7.81 124.10-6.40L124.10-6.40L124.10-6.40Q124.10-2.18 127.68-2.18L127.68-2.18L127.68-2.18Q129.22-2.18 130.24-3.14L130.24-3.14L130.24-3.14Q131.26-4.10 131.26-5.76L131.26-5.76L131.26-5.76Q131.26-9.02 125.76-12.48L125.76-12.48L125.76-12.48Q121.28-15.42 120.26-16.58L120.26-16.58L120.26-16.58Q118.53-18.62 118.53-21.18L118.53-21.18L118.53-21.18Q118.53-23.74 119.74-26.18L119.74-26.18L119.74-26.18Q120.96-28.61 123.20-30.34L123.20-30.34L123.20-30.34Q127.87-33.92 136-33.92L136-33.92L136-33.92Q140.16-33.92 142.62-32.26L142.62-32.26L142.62-32.26Q145.09-30.59 145.09-27.78L145.09-27.78L145.09-27.78Q145.09-24.96 143.39-23.36L143.39-23.36L143.39-23.36Q141.70-21.76 138.62-21.76L138.62-21.76L138.62-21.76Q136.51-21.76 135.49-22.46ZM168-2.69L168-2.69L168-2.69Q164.93 1.28 157.31 1.28L157.31 1.28L157.31 1.28Q153.34 1.28 150.46-1.12L150.46-1.12L150.46-1.12Q147.58-3.52 147.58-6.98L147.58-6.98L147.58-6.98Q147.58-8.90 147.78-9.86L147.78-9.86L152.06-32.64L165.06-33.92L160.38-9.22L160.38-9.22Q160.13-7.81 160.13-6.98L160.13-6.98L160.13-6.98Q160.13-3.26 162.37-3.26L162.37-3.26L162.37-3.26Q164.86-3.26 166.66-6.66L166.66-6.66L166.66-6.66Q167.23-7.74 167.49-9.15L167.49-9.15L172.03-32.64L184.64-33.92L179.90-8.96L179.90-8.96Q179.71-8 179.71-6.98L179.71-6.98L179.71-6.98Q179.71-5.95 180.29-4.83L180.29-4.83L180.29-4.83Q180.86-3.71 182.72-3.46L182.72-3.46L182.72-3.46Q182.34-1.92 180.99-0.90L180.99-0.90L180.99-0.90Q178.18 1.28 175.14 1.28L175.14 1.28L175.14 1.28Q172.10 1.28 170.30 0.19L170.30 0.19L170.30 0.19Q168.51-0.90 168-2.69ZM208.13-17.98L208.13-17.98L208.13-17.98Q210.43-22.08 210.43-26.24L210.43-26.24L210.43-26.24Q210.43-28.99 208.45-28.99L208.45-28.99L208.45-28.99Q206.91-28.99 205.31-26.37L205.31-26.37L205.31-26.37Q203.65-23.74 203.14-20.35L203.14-20.35L199.81 0L186.56 1.28L193.09-32.64L203.65-33.92L202.50-27.46L202.50-27.46Q205.63-33.92 212.67-33.92L212.67-33.92L212.67-33.92Q216.38-33.92 218.40-32L218.40-32L218.40-32Q220.42-30.08 220.42-26.14L220.42-26.14L220.42-26.14Q220.42-22.21 217.82-19.71L217.82-19.71L217.82-19.71Q215.23-17.22 210.82-17.22L210.82-17.22L210.82-17.22Q208.90-17.22 208.13-17.98ZM247.36-10.82L247.36-10.82L247.36-10.82Q248.96-9.73 248.96-7.33L248.96-7.33L248.96-7.33Q248.96-4.93 247.74-3.39L247.74-3.39L247.74-3.39Q246.53-1.86 244.54-0.83L244.54-0.83L244.54-0.83Q240.45 1.28 236.03 1.28L236.03 1.28L236.03 1.28Q231.62 1.28 229.02 0.32L229.02 0.32L229.02 0.32Q226.43-0.64 224.70-2.43L224.70-2.43L224.70-2.43Q221.31-5.82 221.31-12.03L221.31-12.03L221.31-12.03Q221.31-21.70 226.56-27.58L226.56-27.58L226.56-27.58Q232.19-33.92 241.98-33.92L241.98-33.92L241.98-33.92Q248.06-33.92 251.07-31.36L251.07-31.36L251.07-31.36Q253.31-29.44 253.31-26.30L253.31-26.30L253.31-26.30Q253.31-15.04 233.86-15.04L233.86-15.04L233.86-15.04Q233.60-13.38 233.60-11.97L233.60-11.97L233.60-11.97Q233.60-9.02 234.91-7.90L234.91-7.90L234.91-7.90Q236.22-6.78 238.66-6.78L238.66-6.78L238.66-6.78Q241.09-6.78 243.68-7.90L243.68-7.90L243.68-7.90Q246.27-9.02 247.36-10.82ZM234.30-17.79L234.30-17.79L234.30-17.79Q238.85-17.79 241.47-20.61L241.47-20.61L241.47-20.61Q244.10-23.30 244.10-27.58L244.10-27.58L244.10-27.58Q244.10-29.06 243.55-29.86L243.55-29.86L243.55-29.86Q243.01-30.66 241.92-30.66L241.92-30.66L241.92-30.66Q240.83-30.66 239.90-30.24L239.90-30.24L239.90-30.24Q238.98-29.82 238.02-28.42L238.02-28.42L238.02-28.42Q235.65-25.22 234.30-17.79ZM271.46-1.92L271.46-1.92L271.46-1.92Q269.95-3.58 269.28-6.21L269.28-6.21L269.28-6.21Q268.61-8.83 268.61-13.12L268.61-13.12L268.61-13.12Q268.61-17.41 270.08-21.31L270.08-21.31L270.08-21.31Q271.55-25.22 274.24-28.03L274.24-28.03L274.24-28.03Q279.74-33.92 288.83-33.92L288.83-33.92L288.83-33.92Q292.10-33.92 294.46-32.83L294.46-32.83L305.41-33.92L300.67-8.96L300.67-8.96Q300.48-8.19 300.48-6.78L300.48-6.78L300.48-6.78Q300.48-5.38 301.34-4.48L301.34-4.48L301.34-4.48Q302.21-3.58 303.49-3.46L303.49-3.46L303.49-3.46Q302.85-1.28 300.51 0L300.51 0L300.51 0Q298.18 1.28 295.55 1.28L295.55 1.28L295.55 1.28Q292.93 1.28 291.17 0.29L291.17 0.29L291.17 0.29Q289.41-0.70 288.90-2.37L288.90-2.37L288.90-2.37Q287.87-0.77 285.70 0.26L285.70 0.26L285.70 0.26Q283.52 1.28 280.61 1.28L280.61 1.28L280.61 1.28Q277.70 1.28 275.33 0.51L275.33 0.51L275.33 0.51Q272.96-0.26 271.46-1.92ZM284.96-27.90L284.96-27.90L284.96-27.90Q284.22-26.75 283.58-24.80L283.58-24.80L283.58-24.80Q282.94-22.85 281.89-17.63L281.89-17.63L281.89-17.63Q280.83-12.42 280.83-8.70L280.83-8.70L280.83-8.70Q280.83-4.99 281.41-3.90L281.41-3.90L281.41-3.90Q281.98-2.82 283.01-2.82L283.01-2.82L283.01-2.82Q285.06-2.82 286.56-4.77L286.56-4.77L286.56-4.77Q288.06-6.72 288.64-10.18L288.64-10.18L292.03-28.93L292.03-28.93Q290.69-30.08 289.12-30.08L289.12-30.08L289.12-30.08Q287.55-30.08 286.62-29.57L286.62-29.57L286.62-29.57Q285.70-29.06 284.96-27.90ZM309.89-6.40L309.89-6.40L309.89-6.40Q309.89-8.13 310.78-12.48L310.78-12.48L314.18-29.76L310.40-29.76L310.66-31.68L310.66-31.68Q318.34-33.98 325.76-39.62L325.76-39.62L328.83-39.62L327.30-32.64L332.29-32.64L331.71-29.76L326.78-29.76L323.52-12.48L323.52-12.48Q322.69-8.51 322.69-7.17L322.69-7.17L322.69-7.17Q322.69-4.10 325.38-3.46L325.38-3.46L325.38-3.46Q324.74-1.28 322.43 0L322.43 0L322.43 0Q320.13 1.28 316.86 1.28L316.86 1.28L316.86 1.28Q313.60 1.28 311.74-0.77L311.74-0.77L311.74-0.77Q309.89-2.82 309.89-6.40ZM377.34-7.10L377.34-7.10L377.34-7.10Q377.34-4.29 380.22-3.46L380.22-3.46L380.22-3.46Q379.52-1.09 376.77 0.19L376.77 0.19L376.77 0.19Q374.46 1.28 371.94 1.28L371.94 1.28L371.94 1.28Q369.41 1.28 368.10 0.61L368.10 0.61L368.10 0.61Q366.78-0.06 366.08-1.15L366.08-1.15L366.08-1.15Q364.93-2.82 364.93-5.95L364.93-5.95L364.93-5.95Q364.93-7.81 365.95-12.93L365.95-12.93L366.85-17.79L366.85-17.79Q367.94-23.36 367.94-25.41L367.94-25.41L367.94-25.41Q367.94-28.99 365.95-28.99L365.95-28.99L365.95-28.99Q363.46-28.99 361.86-25.34L361.86-25.34L361.86-25.34Q361.22-23.94 360.77-21.82L360.77-21.82L356.42 0L343.55 1.28L352.58-44.80L365.44-46.08L364.93-43.52L364.93-43.52Q363.14-33.66 361.60-30.34L361.60-30.34L361.60-30.34Q365.18-33.92 371.78-33.92L371.78-33.92L371.78-33.92Q378.75-33.92 380.03-29.31L380.03-29.31L380.03-29.31Q380.48-27.84 380.48-26.56L380.48-26.56L380.48-26.56Q380.48-25.28 380.38-24.29L380.38-24.29L380.38-24.29Q380.29-23.30 379.97-21.50L379.97-21.50L379.14-16.90L377.66-9.66L377.66-9.66Q377.34-8.19 377.34-7.10ZM411.33-10.82L411.33-10.82L411.33-10.82Q412.93-9.73 412.93-7.33L412.93-7.33L412.93-7.33Q412.93-4.93 411.71-3.39L411.71-3.39L411.71-3.39Q410.50-1.86 408.51-0.83L408.51-0.83L408.51-0.83Q404.42 1.28 400.00 1.28L400.00 1.28L400.00 1.28Q395.58 1.28 392.99 0.32L392.99 0.32L392.99 0.32Q390.40-0.64 388.67-2.43L388.67-2.43L388.67-2.43Q385.28-5.82 385.28-12.03L385.28-12.03L385.28-12.03Q385.28-21.70 390.53-27.58L390.53-27.58L390.53-27.58Q396.16-33.92 405.95-33.92L405.95-33.92L405.95-33.92Q412.03-33.92 415.04-31.36L415.04-31.36L415.04-31.36Q417.28-29.44 417.28-26.30L417.28-26.30L417.28-26.30Q417.28-15.04 397.82-15.04L397.82-15.04L397.82-15.04Q397.57-13.38 397.57-11.97L397.57-11.97L397.57-11.97Q397.57-9.02 398.88-7.90L398.88-7.90L398.88-7.90Q400.19-6.78 402.62-6.78L402.62-6.78L402.62-6.78Q405.06-6.78 407.65-7.90L407.65-7.90L407.65-7.90Q410.24-9.02 411.33-10.82ZM398.27-17.79L398.27-17.79L398.27-17.79Q402.82-17.79 405.44-20.61L405.44-20.61L405.44-20.61Q408.06-23.30 408.06-27.58L408.06-27.58L408.06-27.58Q408.06-29.06 407.52-29.86L407.52-29.86L407.52-29.86Q406.98-30.66 405.89-30.66L405.89-30.66L405.89-30.66Q404.80-30.66 403.87-30.24L403.87-30.24L403.87-30.24Q402.94-29.82 401.98-28.42L401.98-28.42L401.98-28.42Q399.62-25.22 398.27-17.79ZM422.24-1.92L422.24-1.92L422.24-1.92Q420.74-3.58 420.06-6.21L420.06-6.21L420.06-6.21Q419.39-8.83 419.39-13.12L419.39-13.12L419.39-13.12Q419.39-17.41 420.86-21.31L420.86-21.31L420.86-21.31Q422.34-25.22 425.02-28.03L425.02-28.03L425.02-28.03Q430.53-33.92 439.62-33.92L439.62-33.92L439.62-33.92Q442.88-33.92 445.25-32.83L445.25-32.83L456.19-33.92L451.46-8.96L451.46-8.96Q451.26-8.19 451.26-6.78L451.26-6.78L451.26-6.78Q451.26-5.38 452.13-4.48L452.13-4.48L452.13-4.48Q452.99-3.58 454.27-3.46L454.27-3.46L454.27-3.46Q453.63-1.28 451.30 0L451.30 0L451.30 0Q448.96 1.28 446.34 1.28L446.34 1.28L446.34 1.28Q443.71 1.28 441.95 0.29L441.95 0.29L441.95 0.29Q440.19-0.70 439.68-2.37L439.68-2.37L439.68-2.37Q438.66-0.77 436.48 0.26L436.48 0.26L436.48 0.26Q434.30 1.28 431.39 1.28L431.39 1.28L431.39 1.28Q428.48 1.28 426.11 0.51L426.11 0.51L426.11 0.51Q423.74-0.26 422.24-1.92ZM435.74-27.90L435.74-27.90L435.74-27.90Q435.01-26.75 434.37-24.80L434.37-24.80L434.37-24.80Q433.73-22.85 432.67-17.63L432.67-17.63L432.67-17.63Q431.62-12.42 431.62-8.70L431.62-8.70L431.62-8.70Q431.62-4.99 432.19-3.90L432.19-3.90L432.19-3.90Q432.77-2.82 433.79-2.82L433.79-2.82L433.79-2.82Q435.84-2.82 437.34-4.77L437.34-4.77L437.34-4.77Q438.85-6.72 439.42-10.18L439.42-10.18L442.82-28.93L442.82-28.93Q441.47-30.08 439.90-30.08L439.90-30.08L439.90-30.08Q438.34-30.08 437.41-29.57L437.41-29.57L437.41-29.57Q436.48-29.06 435.74-27.90ZM479.68-17.98L479.68-17.98L479.68-17.98Q481.98-22.08 481.98-26.24L481.98-26.24L481.98-26.24Q481.98-28.99 480.00-28.99L480.00-28.99L480.00-28.99Q478.46-28.99 476.86-26.37L476.86-26.37L476.86-26.37Q475.20-23.74 474.69-20.35L474.69-20.35L471.36 0L458.11 1.28L464.64-32.64L475.20-33.92L474.05-27.46L474.05-27.46Q477.18-33.92 484.22-33.92L484.22-33.92L484.22-33.92Q487.94-33.92 489.95-32L489.95-32L489.95-32Q491.97-30.08 491.97-26.14L491.97-26.14L491.97-26.14Q491.97-22.21 489.38-19.71L489.38-19.71L489.38-19.71Q486.78-17.22 482.37-17.22L482.37-17.22L482.37-17.22Q480.45-17.22 479.68-17.98ZM494.02-6.40L494.02-6.40L494.02-6.40Q494.02-8.13 494.91-12.48L494.91-12.48L498.30-29.76L494.53-29.76L494.78-31.68L494.78-31.68Q502.46-33.98 509.89-39.62L509.89-39.62L512.96-39.62L511.42-32.64L516.42-32.64L515.84-29.76L510.91-29.76L507.65-12.48L507.65-12.48Q506.82-8.51 506.82-7.17L506.82-7.17L506.82-7.17Q506.82-4.10 509.50-3.46L509.50-3.46L509.50-3.46Q508.86-1.28 506.56 0L506.56 0L506.56 0Q504.26 1.28 500.99 1.28L500.99 1.28L500.99 1.28Q497.73 1.28 495.87-0.77L495.87-0.77L495.87-0.77Q494.02-2.82 494.02-6.40ZM510.46 8.26L510.46 8.26L510.46 8.26Q515.39 2.94 515.39-3.71L515.39-3.71L515.39-3.71Q515.39-5.76 514.69-7.68L514.69-7.68L514.69-7.68Q515.46-8.19 516.99-8.54L516.99-8.54L516.99-8.54Q518.53-8.90 519.68-8.90L519.68-8.90L519.68-8.90Q522.50-8.90 524.16-7.39L524.16-7.39L524.16-7.39Q525.82-5.89 525.82-3.26L525.82-3.26L525.82-3.26Q525.82-0.64 524.80 1.47L524.80 1.47L524.80 1.47Q523.78 3.58 522.05 5.18L522.05 5.18L522.05 5.18Q518.34 8.64 513.22 8.64L513.22 8.64L513.22 8.64Q512.19 8.64 510.46 8.26ZM544.19-3.07L544.19-3.07L552.13-44.80L565.12-46.08L563.14-36.29L563.14-36.29Q562.43-33.28 561.54-31.17L561.54-31.17L561.54-31.17Q562.94-32.96 566.02-33.66L566.02-33.66L566.02-33.66Q566.91-33.92 568-33.92L568-33.92L568-33.92Q573.95-33.92 577.22-30.30L577.22-30.30L577.22-30.30Q580.48-26.69 580.48-19.71L580.48-19.71L580.48-19.71Q580.48-10.62 575.30-4.93L575.30-4.93L575.30-4.93Q569.73 1.28 559.62 1.28L559.62 1.28L559.62 1.28Q552.64 1.28 547.39-1.02L547.39-1.02L547.39-1.02Q545.54-1.86 544.19-3.07ZM560.45-22.40L557.06-3.65L557.06-3.65Q558.40-2.50 560.06-2.50L560.06-2.50L560.06-2.50Q561.73-2.50 562.69-3.14L562.69-3.14L562.69-3.14Q563.65-3.78 564.35-5.06L564.35-5.06L564.35-5.06Q566.27-8.51 567.81-19.07L567.81-19.07L567.81-19.07Q568.26-22.08 568.26-25.09L568.26-25.09L568.26-25.09Q568.26-28.10 567.58-29.06L567.58-29.06L567.58-29.06Q566.91-30.02 565.63-30.02L565.63-30.02L565.63-30.02Q561.73-30.02 560.45-22.40L560.45-22.40ZM604.86-2.69L604.86-2.69L604.86-2.69Q601.79 1.28 594.18 1.28L594.18 1.28L594.18 1.28Q590.21 1.28 587.33-1.12L587.33-1.12L587.33-1.12Q584.45-3.52 584.45-6.98L584.45-6.98L584.45-6.98Q584.45-8.90 584.64-9.86L584.64-9.86L588.93-32.64L601.92-33.92L597.25-9.22L597.25-9.22Q596.99-7.81 596.99-6.98L596.99-6.98L596.99-6.98Q596.99-3.26 599.23-3.26L599.23-3.26L599.23-3.26Q601.73-3.26 603.52-6.66L603.52-6.66L603.52-6.66Q604.10-7.74 604.35-9.15L604.35-9.15L608.90-32.64L621.50-33.92L616.77-8.96L616.77-8.96Q616.58-8 616.58-6.98L616.58-6.98L616.58-6.98Q616.58-5.95 617.15-4.83L617.15-4.83L617.15-4.83Q617.73-3.71 619.58-3.46L619.58-3.46L619.58-3.46Q619.20-1.92 617.86-0.90L617.86-0.90L617.86-0.90Q615.04 1.28 612.00 1.28L612.00 1.28L612.00 1.28Q608.96 1.28 607.17 0.19L607.17 0.19L607.17 0.19Q605.38-0.90 604.86-2.69ZM644.10-22.46L644.10-22.46L644.10-22.46Q644.99-24.83 644.99-26.88L644.99-26.88L644.99-26.88Q644.99-30.66 641.92-30.66L641.92-30.66L641.92-30.66Q640.32-30.66 639.01-29.22L639.01-29.22L639.01-29.22Q637.70-27.78 637.70-25.98L637.70-25.98L637.70-25.98Q637.70-24.70 638.72-23.68L638.72-23.68L638.72-23.68Q640.19-22.27 643.97-19.97L643.97-19.97L643.97-19.97Q647.74-17.66 649.18-15.78L649.18-15.78L649.18-15.78Q650.62-13.89 650.62-11.30L650.62-11.30L650.62-11.30Q650.62-8.70 649.38-6.34L649.38-6.34L649.38-6.34Q648.13-3.97 645.89-2.30L645.89-2.30L645.89-2.30Q641.09 1.28 633.41 1.28L633.41 1.28L633.41 1.28Q629.25 1.28 626.05-0.90L626.05-0.90L626.05-0.90Q622.85-3.01 622.85-5.50L622.85-5.50L622.85-5.50Q622.85-8 624.67-9.47L624.67-9.47L624.67-9.47Q626.50-10.94 629.18-10.94L629.18-10.94L629.18-10.94Q631.87-10.94 633.54-9.92L633.54-9.92L633.54-9.92Q632.70-7.81 632.70-6.40L632.70-6.40L632.70-6.40Q632.70-2.18 636.29-2.18L636.29-2.18L636.29-2.18Q637.82-2.18 638.85-3.14L638.85-3.14L638.85-3.14Q639.87-4.10 639.87-5.76L639.87-5.76L639.87-5.76Q639.87-9.02 634.37-12.48L634.37-12.48L634.37-12.48Q629.89-15.42 628.86-16.58L628.86-16.58L628.86-16.58Q627.14-18.62 627.14-21.18L627.14-21.18L627.14-21.18Q627.14-23.74 628.35-26.18L628.35-26.18L628.35-26.18Q629.57-28.61 631.81-30.34L631.81-30.34L631.81-30.34Q636.48-33.92 644.61-33.92L644.61-33.92L644.61-33.92Q648.77-33.92 651.23-32.26L651.23-32.26L651.23-32.26Q653.70-30.59 653.70-27.78L653.70-27.78L653.70-27.78Q653.70-24.96 652.00-23.36L652.00-23.36L652.00-23.36Q650.30-21.76 647.23-21.76L647.23-21.76L647.23-21.76Q645.12-21.76 644.10-22.46ZM671.42-3.52L671.42-3.52L671.42-3.52Q669.44 1.28 663.10 1.28L663.10 1.28L663.10 1.28Q659.84 1.28 657.79-0.96L657.79-0.96L657.79-0.96Q656.06-2.94 656.06-4.93L656.06-4.93L656.06-4.93Q656.06-10.11 658.43-20.22L658.43-20.22L660.80-32.64L673.79-33.92L669.89-13.70L669.89-13.70Q668.80-8.96 668.80-7.30L668.80-7.30L668.80-7.30Q668.80-3.65 671.42-3.52ZM661.95-41.54L661.95-41.54L661.95-41.54Q661.95-44.03 664.03-45.38L664.03-45.38L664.03-45.38Q666.11-46.72 669.12-46.72L669.12-46.72L669.12-46.72Q672.13-46.72 673.95-45.38L673.95-45.38L673.95-45.38Q675.78-44.03 675.78-41.54L675.78-41.54L675.78-41.54Q675.78-39.04 673.76-37.76L673.76-37.76L673.76-37.76Q671.74-36.48 668.74-36.48L668.74-36.48L668.74-36.48Q665.73-36.48 663.84-37.76L663.84-37.76L663.84-37.76Q661.95-39.04 661.95-41.54ZM703.94 1.28L703.94 1.28L703.94 1.28Q696.19 1.28 696.19-4.74L696.19-4.74L696.19-4.74Q696.26-6.40 696.77-9.22L696.77-9.22L697.92-15.10L697.92-15.10Q699.65-23.42 699.65-25.28L699.65-25.28L699.65-25.28Q699.65-28.99 697.47-28.99L697.47-28.99L697.47-28.99Q693.82-28.99 691.90-19.46L691.90-19.46L688.13 0L675.26 1.28L681.92-32.70L692.42-33.92L691.39-27.65L691.39-27.65Q694.40-33.92 703.62-33.92L703.62-33.92L703.62-33.92Q708.10-33.92 709.98-32.03L709.98-32.03L709.98-32.03Q711.87-30.14 711.87-25.92L711.87-25.92L711.87-25.92Q711.87-21.95 709.82-12.67L709.82-12.67L709.82-12.67Q708.86-8.51 708.86-6.94L708.86-6.94L708.86-6.94Q708.86-5.38 709.73-4.48L709.73-4.48L709.73-4.48Q710.59-3.58 711.87-3.46L711.87-3.46L711.87-3.46Q711.23-1.28 709.02 0L709.02 0L709.02 0Q706.82 1.28 703.94 1.28ZM742.91-10.82L742.91-10.82L742.91-10.82Q744.51-9.73 744.51-7.33L744.51-7.33L744.51-7.33Q744.51-4.93 743.30-3.39L743.30-3.39L743.30-3.39Q742.08-1.86 740.10-0.83L740.10-0.83L740.10-0.83Q736.00 1.28 731.58 1.28L731.58 1.28L731.58 1.28Q727.17 1.28 724.58 0.32L724.58 0.32L724.58 0.32Q721.98-0.64 720.26-2.43L720.26-2.43L720.26-2.43Q716.86-5.82 716.86-12.03L716.86-12.03L716.86-12.03Q716.86-21.70 722.11-27.58L722.11-27.58L722.11-27.58Q727.74-33.92 737.54-33.92L737.54-33.92L737.54-33.92Q743.62-33.92 746.62-31.36L746.62-31.36L746.62-31.36Q748.86-29.44 748.86-26.30L748.86-26.30L748.86-26.30Q748.86-15.04 729.41-15.04L729.41-15.04L729.41-15.04Q729.15-13.38 729.15-11.97L729.15-11.97L729.15-11.97Q729.15-9.02 730.46-7.90L730.46-7.90L730.46-7.90Q731.78-6.78 734.21-6.78L734.21-6.78L734.21-6.78Q736.64-6.78 739.23-7.90L739.23-7.90L739.23-7.90Q741.82-9.02 742.91-10.82ZM729.86-17.79L729.86-17.79L729.86-17.79Q734.40-17.79 737.02-20.61L737.02-20.61L737.02-20.61Q739.65-23.30 739.65-27.58L739.65-27.58L739.65-27.58Q739.65-29.06 739.10-29.86L739.10-29.86L739.10-29.86Q738.56-30.66 737.47-30.66L737.47-30.66L737.47-30.66Q736.38-30.66 735.46-30.24L735.46-30.24L735.46-30.24Q734.53-29.82 733.57-28.42L733.57-28.42L733.57-28.42Q731.20-25.22 729.86-17.79ZM770.18-22.46L770.18-22.46L770.18-22.46Q771.07-24.83 771.07-26.88L771.07-26.88L771.07-26.88Q771.07-30.66 768.00-30.66L768.00-30.66L768.00-30.66Q766.40-30.66 765.09-29.22L765.09-29.22L765.09-29.22Q763.78-27.78 763.78-25.98L763.78-25.98L763.78-25.98Q763.78-24.70 764.80-23.68L764.80-23.68L764.80-23.68Q766.27-22.27 770.05-19.97L770.05-19.97L770.05-19.97Q773.82-17.66 775.26-15.78L775.26-15.78L775.26-15.78Q776.70-13.89 776.70-11.30L776.70-11.30L776.70-11.30Q776.70-8.70 775.46-6.34L775.46-6.34L775.46-6.34Q774.21-3.97 771.97-2.30L771.97-2.30L771.97-2.30Q767.17 1.28 759.49 1.28L759.49 1.28L759.49 1.28Q755.33 1.28 752.13-0.90L752.13-0.90L752.13-0.90Q748.93-3.01 748.93-5.50L748.93-5.50L748.93-5.50Q748.93-8 750.75-9.47L750.75-9.47L750.75-9.47Q752.58-10.94 755.26-10.94L755.26-10.94L755.26-10.94Q757.95-10.94 759.62-9.92L759.62-9.92L759.62-9.92Q758.78-7.81 758.78-6.40L758.78-6.40L758.78-6.40Q758.78-2.18 762.37-2.18L762.37-2.18L762.37-2.18Q763.90-2.18 764.93-3.14L764.93-3.14L764.93-3.14Q765.95-4.10 765.95-5.76L765.95-5.76L765.95-5.76Q765.95-9.02 760.45-12.48L760.45-12.48L760.45-12.48Q755.97-15.42 754.94-16.58L754.94-16.58L754.94-16.58Q753.22-18.62 753.22-21.18L753.22-21.18L753.22-21.18Q753.22-23.74 754.43-26.18L754.43-26.18L754.43-26.18Q755.65-28.61 757.89-30.34L757.89-30.34L757.89-30.34Q762.56-33.92 770.69-33.92L770.69-33.92L770.69-33.92Q774.85-33.92 777.31-32.26L777.31-32.26L777.31-32.26Q779.78-30.59 779.78-27.78L779.78-27.78L779.78-27.78Q779.78-24.96 778.08-23.36L778.08-23.36L778.08-23.36Q776.38-21.76 773.31-21.76L773.31-21.76L773.31-21.76Q771.20-21.76 770.18-22.46ZM801.28-22.46L801.28-22.46L801.28-22.46Q802.18-24.83 802.18-26.88L802.18-26.88L802.18-26.88Q802.18-30.66 799.10-30.66L799.10-30.66L799.10-30.66Q797.50-30.66 796.19-29.22L796.19-29.22L796.19-29.22Q794.88-27.78 794.88-25.98L794.88-25.98L794.88-25.98Q794.88-24.70 795.90-23.68L795.90-23.68L795.90-23.68Q797.38-22.27 801.15-19.97L801.15-19.97L801.15-19.97Q804.93-17.66 806.37-15.78L806.37-15.78L806.37-15.78Q807.81-13.89 807.81-11.30L807.81-11.30L807.81-11.30Q807.81-8.70 806.56-6.34L806.56-6.34L806.56-6.34Q805.31-3.97 803.07-2.30L803.07-2.30L803.07-2.30Q798.27 1.28 790.59 1.28L790.59 1.28L790.59 1.28Q786.43 1.28 783.23-0.90L783.23-0.90L783.23-0.90Q780.03-3.01 780.03-5.50L780.03-5.50L780.03-5.50Q780.03-8 781.86-9.47L781.86-9.47L781.86-9.47Q783.68-10.94 786.37-10.94L786.37-10.94L786.37-10.94Q789.06-10.94 790.72-9.92L790.72-9.92L790.72-9.92Q789.89-7.81 789.89-6.40L789.89-6.40L789.89-6.40Q789.89-2.18 793.47-2.18L793.47-2.18L793.47-2.18Q795.01-2.18 796.03-3.14L796.03-3.14L796.03-3.14Q797.06-4.10 797.06-5.76L797.06-5.76L797.06-5.76Q797.06-9.02 791.55-12.48L791.55-12.48L791.55-12.48Q787.07-15.42 786.05-16.58L786.05-16.58L786.05-16.58Q784.32-18.62 784.32-21.18L784.32-21.18L784.32-21.18Q784.32-23.74 785.54-26.18L785.54-26.18L785.54-26.18Q786.75-28.61 788.99-30.34L788.99-30.34L788.99-30.34Q793.66-33.92 801.79-33.92L801.79-33.92L801.79-33.92Q805.95-33.92 808.42-32.26L808.42-32.26L808.42-32.26Q810.88-30.59 810.88-27.78L810.88-27.78L810.88-27.78Q810.88-24.96 809.18-23.36L809.18-23.36L809.18-23.36Q807.49-21.76 804.42-21.76L804.42-21.76L804.42-21.76Q802.30-21.76 801.28-22.46ZM841.79-3.52L841.79-3.52L841.79-3.52Q839.81 1.28 833.47 1.28L833.47 1.28L833.47 1.28Q830.21 1.28 828.16-0.96L828.16-0.96L828.16-0.96Q826.43-2.94 826.43-4.93L826.43-4.93L826.43-4.93Q826.43-10.11 828.80-20.22L828.80-20.22L831.17-32.64L844.16-33.92L840.26-13.70L840.26-13.70Q839.17-8.96 839.17-7.30L839.17-7.30L839.17-7.30Q839.17-3.65 841.79-3.52ZM832.32-41.54L832.32-41.54L832.32-41.54Q832.32-44.03 834.40-45.38L834.40-45.38L834.40-45.38Q836.48-46.72 839.49-46.72L839.49-46.72L839.49-46.72Q842.50-46.72 844.32-45.38L844.32-45.38L844.32-45.38Q846.14-44.03 846.14-41.54L846.14-41.54L846.14-41.54Q846.14-39.04 844.13-37.76L844.13-37.76L844.13-37.76Q842.11-36.48 839.10-36.48L839.10-36.48L839.10-36.48Q836.10-36.48 834.21-37.76L834.21-37.76L834.21-37.76Q832.32-39.04 832.32-41.54ZM874.30 1.28L874.30 1.28L874.30 1.28Q866.56 1.28 866.56-4.74L866.56-4.74L866.56-4.74Q866.62-6.40 867.14-9.22L867.14-9.22L868.29-15.10L868.29-15.10Q870.02-23.42 870.02-25.28L870.02-25.28L870.02-25.28Q870.02-28.99 867.84-28.99L867.84-28.99L867.84-28.99Q864.19-28.99 862.27-19.46L862.27-19.46L858.50 0L845.63 1.28L852.29-32.70L862.78-33.92L861.76-27.65L861.76-27.65Q864.77-33.92 873.98-33.92L873.98-33.92L873.98-33.92Q878.46-33.92 880.35-32.03L880.35-32.03L880.35-32.03Q882.24-30.14 882.24-25.92L882.24-25.92L882.24-25.92Q882.24-21.95 880.19-12.67L880.19-12.67L880.19-12.67Q879.23-8.51 879.23-6.94L879.23-6.94L879.23-6.94Q879.23-5.38 880.10-4.48L880.10-4.48L880.10-4.48Q880.96-3.58 882.24-3.46L882.24-3.46L882.24-3.46Q881.60-1.28 879.39 0L879.39 0L879.39 0Q877.18 1.28 874.30 1.28ZM946.62 1.28L946.62 1.28L946.62 1.28Q938.88 1.28 938.88-4.74L938.88-4.74L938.88-4.74Q938.88-7.36 940.00-12.45L940.00-12.45L940.00-12.45Q941.12-17.54 941.50-19.58L941.50-19.58L941.50-19.58Q942.40-24.26 942.40-25.73L942.40-25.73L942.40-25.73Q942.40-28.99 939.97-28.99L939.97-28.99L939.97-28.99Q938.37-28.99 936.83-26.78L936.83-26.78L936.83-26.78Q935.30-24.58 934.59-20.16L934.59-20.16L930.62 0L918.14 1.28L921.60-16.13L921.60-16.13Q922.18-19.01 922.69-22.27L922.69-22.27L922.69-22.27Q923.20-25.54 923.20-26.05L923.20-26.05L923.20-26.05Q923.20-28.99 921.02-28.99L921.02-28.99L921.02-28.99Q919.55-28.99 917.95-26.82L917.95-26.82L917.95-26.82Q916.35-24.64 915.46-20.16L915.46-20.16L911.55 0L898.94 1.28L905.66-32.64L916.10-33.92L915.01-27.46L915.01-27.46Q916.67-30.91 919.74-32.42L919.74-32.42L919.74-32.42Q922.82-33.92 927.62-33.92L927.62-33.92L927.62-33.92Q930.37-33.92 932.16-32.58L932.16-32.58L932.16-32.58Q933.95-31.23 934.53-29.06L934.53-29.06L934.53-29.06Q935.62-31.30 938.40-32.61L938.40-32.61L938.40-32.61Q941.18-33.92 944.61-33.92L944.61-33.92L944.61-33.92Q948.03-33.92 949.73-33.18L949.73-33.18L949.73-33.18Q951.42-32.45 952.45-31.23L952.45-31.23L952.45-31.23Q954.18-28.99 954.18-24.90L954.18-24.90L954.18-24.90Q954.18-20.86 952.45-12.48L952.45-12.48L952.45-12.48Q951.55-8.38 951.55-6.88L951.55-6.88L951.55-6.88Q951.55-5.38 952.42-4.48L952.42-4.48L952.42-4.48Q953.28-3.58 954.56-3.46L954.56-3.46L954.56-3.46Q953.92-1.28 951.71 0L951.71 0L951.71 0Q949.50 1.28 946.62 1.28ZM974.85-3.52L974.85-3.52L974.85-3.52Q972.86 1.28 966.53 1.28L966.53 1.28L966.53 1.28Q963.26 1.28 961.22-0.96L961.22-0.96L961.22-0.96Q959.49-2.94 959.49-4.93L959.49-4.93L959.49-4.93Q959.49-10.11 961.86-20.22L961.86-20.22L964.22-32.64L977.22-33.92L973.31-13.70L973.31-13.70Q972.22-8.96 972.22-7.30L972.22-7.30L972.22-7.30Q972.22-3.65 974.85-3.52ZM965.38-41.54L965.38-41.54L965.38-41.54Q965.38-44.03 967.46-45.38L967.46-45.38L967.46-45.38Q969.54-46.72 972.54-46.72L972.54-46.72L972.54-46.72Q975.55-46.72 977.38-45.38L977.38-45.38L977.38-45.38Q979.20-44.03 979.20-41.54L979.20-41.54L979.20-41.54Q979.20-39.04 977.18-37.76L977.18-37.76L977.18-37.76Q975.17-36.48 972.16-36.48L972.16-36.48L972.16-36.48Q969.15-36.48 967.26-37.76L967.26-37.76L967.26-37.76Q965.38-39.04 965.38-41.54ZM1007.36 1.28L1007.36 1.28L1007.36 1.28Q999.62 1.28 999.62-4.74L999.62-4.74L999.62-4.74Q999.68-6.40 1000.19-9.22L1000.19-9.22L1001.34-15.10L1001.34-15.10Q1003.07-23.42 1003.07-25.28L1003.07-25.28L1003.07-25.28Q1003.07-28.99 1000.90-28.99L1000.90-28.99L1000.90-28.99Q997.25-28.99 995.33-19.46L995.33-19.46L991.55 0L978.69 1.28L985.34-32.70L995.84-33.92L994.82-27.65L994.82-27.65Q997.82-33.92 1007.04-33.92L1007.04-33.92L1007.04-33.92Q1011.52-33.92 1013.41-32.03L1013.41-32.03L1013.41-32.03Q1015.30-30.14 1015.30-25.92L1015.30-25.92L1015.30-25.92Q1015.30-21.95 1013.25-12.67L1013.25-12.67L1013.25-12.67Q1012.29-8.51 1012.29-6.94L1012.29-6.94L1012.29-6.94Q1012.29-5.38 1013.15-4.48L1013.15-4.48L1013.15-4.48Q1014.02-3.58 1015.30-3.46L1015.30-3.46L1015.30-3.46Q1014.66-1.28 1012.45 0L1012.45 0L1012.45 0Q1010.24 1.28 1007.36 1.28ZM1040.58-33.92L1040.58-33.92L1040.58-33.92Q1042.88-33.92 1044.67-33.41L1044.67-33.41L1044.67-33.41Q1044.74-33.66 1044.86-34.37L1044.86-34.37L1045.18-36.35L1045.18-36.35Q1045.44-37.63 1045.82-39.74L1045.82-39.74L1046.85-44.80L1059.58-46.08L1052.48-8.96L1052.48-8.96Q1052.42-8.58 1052.42-7.94L1052.42-7.94L1052.42-6.91L1052.42-6.91Q1052.42-5.50 1053.12-4.45L1053.12-4.45L1053.12-4.45Q1053.82-3.39 1054.98-3.39L1054.98-3.39L1054.98-3.39Q1053.70-0.38 1049.79 0.90L1049.79 0.90L1049.79 0.90Q1048.45 1.28 1046.56 1.28L1046.56 1.28L1046.56 1.28Q1044.67 1.28 1042.94 0.29L1042.94 0.29L1042.94 0.29Q1041.22-0.70 1040.70-2.37L1040.70-2.37L1040.70-2.37Q1039.68-0.70 1037.63 0.29L1037.63 0.29L1037.63 0.29Q1035.58 1.28 1032.61 1.28L1032.61 1.28L1032.61 1.28Q1029.63 1.28 1027.17 0.51L1027.17 0.51L1027.17 0.51Q1024.70-0.26 1023.17-1.92L1023.17-1.92L1023.17-1.92Q1020.35-5.18 1020.35-12.61L1020.35-12.61L1020.35-12.61Q1020.35-22.21 1025.98-28.03L1025.98-28.03L1025.98-28.03Q1031.62-33.92 1040.58-33.92ZM1040.13-30.08L1040.13-30.08L1040.13-30.08Q1037.76-30.08 1036.48-27.52L1036.48-27.52L1036.48-27.52Q1035.20-24.96 1033.89-18.62L1033.89-18.62L1033.89-18.62Q1032.58-12.29 1032.58-6.59L1032.58-6.59L1032.58-6.59Q1032.58-2.69 1034.88-2.69L1034.88-2.69L1034.88-2.69Q1036.93-2.69 1038.37-4.74L1038.37-4.74L1038.37-4.74Q1039.81-6.78 1040.38-10.18L1040.38-10.18L1043.84-28.93L1043.84-28.93Q1042.50-30.08 1040.13-30.08ZM1070.34-29.50L1063.55-29.50L1063.55-29.50Q1065.92-37.70 1066.05-46.34L1066.05-46.34L1067.90-46.59L1067.90-46.59Q1068.86-46.72 1069.57-46.72L1069.57-46.72L1069.57-46.72Q1072.38-46.72 1073.92-45.34L1073.92-45.34L1073.92-45.34Q1075.46-43.97 1075.46-41.54L1075.46-41.54L1075.46-41.54Q1075.46-38.98 1074.30-36.16L1074.30-36.16L1074.30-36.16Q1072.26-31.17 1070.34-29.50L1070.34-29.50ZM1083.71-29.50L1076.93-29.50L1076.93-29.50Q1079.30-37.70 1079.42-46.34L1079.42-46.34L1081.28-46.59L1081.28-46.59Q1082.24-46.72 1082.94-46.72L1082.94-46.72L1082.94-46.72Q1085.76-46.72 1087.30-45.34L1087.30-45.34L1087.30-45.34Q1088.83-43.97 1088.83-41.54L1088.83-41.54L1088.83-41.54Q1088.83-38.98 1087.68-36.16L1087.68-36.16L1087.68-36.16Q1085.63-31.17 1083.71-29.50L1083.71-29.50Z" fill="#ffffff"></path></g></g><style>text {
  font-size: 64px;
  font-family: Arial Black;
  dominant-baseline: central;
  text-anchor: middle;
}</style></svg>